<svg width="256" height="74" viewBox="0 0 256 74" fill="none" xmlns="http://www.w3.org/2000/svg">
<path d="M61.7959 49.4541H55.7305V40.4541H61.7959V49.4541ZM69.5146 28.9961H61.7959V34.4541H55.7305V28.9961H48V24H69.5146V28.9961Z" fill="#430E00"/>
<path d="M98.1836 49.4541H91.4727L86.8184 40.7422H83.667V49.4541H77.5146V40.4541H93.2803L98.1836 49.4541ZM88.0293 24C89.935 24 91.5801 24.3436 92.9639 25.0312C94.3559 25.7107 95.4286 26.6889 96.1826 27.9648C96.9366 29.2326 97.3145 30.7365 97.3145 32.4766C97.3145 33.1776 97.2524 33.8367 97.1309 34.4541H90.4258C90.4346 34.441 90.4445 34.4283 90.4531 34.415C90.7762 33.9096 90.9375 33.2636 90.9375 32.4766C90.9375 31.6894 90.7762 31.0391 90.4531 30.5254C90.13 30.0034 89.6532 29.6133 89.0234 29.3564C88.3938 29.0914 87.6187 28.959 86.6992 28.959H83.667V34.4541H77.5146V24H88.0293Z" fill="#430E00"/>
<path d="M123.744 40.998C122.725 46.7915 119.212 51.0624 115.034 51.0625C110.856 51.0625 107.343 46.7917 106.323 40.998H123.744ZM115.034 24C119.434 24.0001 123.095 28.7359 123.885 34.998H106.184C106.973 28.7358 110.635 24 115.034 24Z" fill="#430E00"/>
<path d="M138.037 49.4541H131.885V40.4541H138.037V49.4541ZM153.549 49.4541H148.328L142.122 40.4541H153.549V49.4541ZM144.32 34.4541H131.885V24H137.18L144.32 34.4541ZM153.549 34.4541H147.408V24H153.549V34.4541Z" fill="#430E00"/>
<path d="M167.54 49.4541H161.549V40.4541H167.54V49.4541ZM190.011 49.4541H184.021V40.4541H190.011V49.4541ZM177.694 49.293H173.866L170.393 40.4541H181.188L177.694 49.293ZM173.455 34.4541H168.035L167.751 33.7314H167.54V34.4541H161.549V24H169.168L173.455 34.4541ZM190.011 34.4541H184.021V33.8193H183.81L183.559 34.4541H178.104L182.393 24H190.011V34.4541Z" fill="#430E00"/>
<path d="M223.378 49.4541H216.766L215.088 44.1104H206.297L204.623 49.4541H198.011L201.048 40.4541H220.342L223.378 49.4541ZM218.317 34.4541H212.057L210.788 30.4131H210.589L209.323 34.4541H203.072L206.6 24H214.79L218.317 34.4541Z" fill="#430E00"/>
<path d="M255.191 49.4541H248.132L243.359 41.3262H243.16L238.388 49.4541H231.378L236.959 40.4541H249.584L255.191 49.4541ZM243.16 32.042H243.359L248.058 24H254.943L248.634 34.4541H237.896L231.577 24H238.512L243.16 32.042Z" fill="#430E00"/>
<path d="M39.7545 21.1297C39.9438 21.2647 40.0854 21.4573 40.1586 21.6795C40.2319 21.9017 40.2329 22.1418 40.1616 22.3646L36.4974 34.44H43.283C43.451 34.4793 43.6072 34.5585 43.7389 34.6711C43.8706 34.7836 43.9739 34.9263 44.0402 35.0872C44.1065 35.2482 44.134 35.4227 44.1203 35.5965C44.1066 35.7703 44.0522 35.9383 43.9615 36.0866L27.6762 53.6508C27.5002 53.7562 27.2984 53.8092 27.0939 53.8037C26.8894 53.7983 26.6906 53.7345 26.5205 53.6198C26.3503 53.505 26.2156 53.344 26.1319 53.1553C26.0483 52.9666 26.0191 52.7578 26.0476 52.553L29.7118 40.6149H22.9263C22.7361 40.5863 22.5569 40.5072 22.4068 40.3857C22.2568 40.2642 22.1414 40.1045 22.0724 39.9231C22.0034 39.7417 21.9832 39.545 22.014 39.3531C22.0448 39.1612 22.1255 38.981 22.2477 38.831L38.5331 21.2669C38.6991 21.1219 38.9047 21.0312 39.1227 21.0067C39.3408 20.9822 39.561 21.0251 39.7545 21.1297Z" fill="#003543"/>
<path d="M61.8418 15.8135V20.3867L33.3418 4.57422L4 20.8545V53.1445L33.3418 69.4248L61.8418 53.6113V58.1855L33.3418 74L0 55.5V18.5L33.3418 0L61.8418 15.8135Z" fill="#003543"/>
<path d="M60.5791 21H56.4336L33.3418 8.2832L7.19629 22.6816V51.3174L33.3418 65.7158L56.4316 53H60.5791L33.3418 68L5.19629 52.5V21.5L33.3418 6L60.5791 21Z" fill="#003543"/>
</svg>
