<svg width="240" height="74" viewBox="0 0 240 74" fill="none" xmlns="http://www.w3.org/2000/svg">
<path d="M39.7545 21.1297C39.9438 21.2647 40.0854 21.4573 40.1586 21.6795C40.2319 21.9017 40.2329 22.1418 40.1616 22.3646L36.4974 34.44H43.283C43.451 34.4793 43.6072 34.5585 43.7389 34.6711C43.8706 34.7836 43.9739 34.9263 44.0402 35.0872C44.1065 35.2482 44.134 35.4227 44.1203 35.5965C44.1066 35.7703 44.0522 35.9383 43.9615 36.0866L27.6762 53.6508C27.5002 53.7562 27.2984 53.8092 27.0939 53.8037C26.8894 53.7983 26.6906 53.7345 26.5205 53.6198C26.3503 53.505 26.2156 53.344 26.1319 53.1553C26.0483 52.9666 26.0191 52.7578 26.0476 52.553L29.7118 40.6149H22.9263C22.7361 40.5863 22.5569 40.5072 22.4068 40.3857C22.2568 40.2642 22.1414 40.1045 22.0724 39.9231C22.0034 39.7417 21.9832 39.545 22.014 39.3531C22.0448 39.1612 22.1255 38.981 22.2477 38.831L38.5331 21.2669C38.6991 21.1219 38.9047 21.0312 39.1227 21.0067C39.3408 20.9822 39.561 21.0251 39.7545 21.1297Z" fill="#003543"/>
<path d="M60.3926 50.0625H57.2256V40.5469H60.3926V50.0625ZM68.6182 26.7148H60.3926V34.5469H57.2256V26.7148H49V23.9053H68.6182V26.7148Z" fill="#430E00"/>
<path d="M79.251 50.0625H76.084V40.5469H79.251V50.0625ZM94.833 50.0625H91.1543L86.0244 40.5469H89.6201L94.833 50.0625ZM84.9219 23.9053C86.9654 23.9053 88.6428 24.2549 89.9541 24.9531C91.2653 25.6428 92.2361 26.5918 92.8662 27.8008C93.4963 29.0099 93.8115 30.3856 93.8115 31.9268C93.8115 32.8648 93.6944 33.7382 93.4609 34.5469H90.1484C90.5112 33.8072 90.6953 32.9345 90.6953 31.9268C90.6953 30.8796 90.499 29.964 90.1074 29.1807C89.7157 28.3973 89.0895 27.7929 88.2295 27.3672C87.3695 26.933 86.2327 26.7158 84.8193 26.7158H79.251V34.5469H76.084V23.9053H84.9219Z" fill="#430E00"/>
<path d="M119.883 39.998C118.863 45.7915 115.351 50.0624 111.173 50.0625C106.995 50.0625 103.481 45.7917 102.462 39.998H119.883ZM111.173 23C115.572 23.0001 119.234 27.7359 120.023 33.998H102.322C103.112 27.7358 106.773 23 111.173 23Z" fill="#430E00"/>
<path d="M130.68 50.0625H127.512V40.5469H130.68V50.0625ZM148.254 50.0625H145.188L138.584 40.5469H142.14L144.882 44.4941H145.138V40.5469H148.254V50.0625ZM137.971 34.5469H134.42L130.935 29.5254H130.68V34.5469H127.512V23.9053H130.577L137.971 34.5469ZM148.254 34.5469H145.138V23.9053H148.254V34.5469Z" fill="#430E00"/>
<path d="M158.683 50.0625H155.72V40.5469H158.683V50.0625ZM169.973 50.0625H167.112L163.198 40.5469H166.313L168.39 45.6182H168.695L170.771 40.5469H173.887L169.973 50.0625ZM181.365 50.0625H178.402V40.5469H181.365V50.0625ZM163.856 34.5469H160.729L158.938 30.1895H158.683V34.5469H155.72V23.9053H159.5L163.856 34.5469ZM181.365 34.5469H178.402V30.1895H178.147L176.355 34.5469H173.229L177.585 23.9053H181.365V34.5469Z" fill="#430E00"/>
<path d="M211.312 50.0625H207.99L205.36 42.6553H194.783L192.153 50.0625H188.832L192.326 40.5469H207.817L211.312 50.0625ZM205.614 34.5469H202.482L200.174 28.0439H199.97L197.661 34.5469H194.529L198.437 23.9053H201.706L205.614 34.5469Z" fill="#430E00"/>
<path d="M222.506 50.0625H218.776L224.91 40.5469H228.517L222.506 50.0625ZM239.928 50.0625H236.198L230.188 40.5469H233.942L239.928 50.0625ZM229.102 34.5469H225.635L218.776 23.9053H222.506L229.102 34.5469ZM233.235 34.5469H229.603L236.198 23.9053H239.928L233.235 34.5469Z" fill="#430E00"/>
<path d="M61.8418 15.8135V20.3867L33.3418 4.57422L4 20.8545V53.1445L33.3418 69.4248L61.8418 53.6113V58.1855L33.3418 74L0 55.5V18.5L33.3418 0L61.8418 15.8135Z" fill="#003543"/>
<path d="M60.5791 21H56.4336L33.3418 8.2832L7.19629 22.6816V51.3174L33.3418 65.7158L56.4316 53H60.5791L33.3418 68L5.19629 52.5V21.5L33.3418 6L60.5791 21Z" fill="#003543"/>
</svg>
