<svg width="259" height="74" viewBox="0 0 259 74" fill="none" xmlns="http://www.w3.org/2000/svg">
<path d="M64.7959 46.4541H58.7305V37.4541H64.7959V46.4541ZM72.5146 25.9961H64.7959V31.4541H58.7305V25.9961H51V21H72.5146V25.9961Z" fill="#430E00"/>
<path d="M101.184 46.4541H94.4727L89.8184 37.7422H86.667V46.4541H80.5146V37.4541H96.2803L101.184 46.4541ZM91.0293 21C92.935 21 94.5801 21.3436 95.9639 22.0312C97.3559 22.7107 98.4286 23.6889 99.1826 24.9648C99.9366 26.2326 100.314 27.7365 100.314 29.4766C100.314 30.1776 100.252 30.8367 100.131 31.4541H93.4258C93.4346 31.441 93.4445 31.4283 93.4531 31.415C93.7762 30.9096 93.9375 30.2636 93.9375 29.4766C93.9375 28.6894 93.7762 28.0391 93.4531 27.5254C93.13 27.0034 92.6532 26.6133 92.0234 26.3564C91.3938 26.0914 90.6187 25.959 89.6992 25.959H86.667V31.4541H80.5146V21H91.0293Z" fill="#430E00"/>
<path d="M126.744 37.998C125.725 43.7915 122.212 48.0624 118.034 48.0625C113.856 48.0625 110.343 43.7917 109.323 37.998H126.744ZM118.034 21C122.434 21.0001 126.095 25.7359 126.885 31.998H109.184C109.973 25.7358 113.635 21 118.034 21Z" fill="#430E00"/>
<path d="M141.037 46.4541H134.885V37.4541H141.037V46.4541ZM156.549 46.4541H151.328L145.122 37.4541H156.549V46.4541ZM147.32 31.4541H134.885V21H140.18L147.32 31.4541ZM156.549 31.4541H150.408V21H156.549V31.4541Z" fill="#430E00"/>
<path d="M170.54 46.4541H164.549V37.4541H170.54V46.4541ZM193.011 46.4541H187.021V37.4541H193.011V46.4541ZM180.694 46.293H176.866L173.393 37.4541H184.188L180.694 46.293ZM176.455 31.4541H171.035L170.751 30.7314H170.54V31.4541H164.549V21H172.168L176.455 31.4541ZM193.011 31.4541H187.021V30.8193H186.81L186.559 31.4541H181.104L185.393 21H193.011V31.4541Z" fill="#430E00"/>
<path d="M226.378 46.4541H219.766L218.088 41.1104H209.297L207.623 46.4541H201.011L204.048 37.4541H223.342L226.378 46.4541ZM221.317 31.4541H215.057L213.788 27.4131H213.589L212.323 31.4541H206.072L209.6 21H217.79L221.317 31.4541Z" fill="#430E00"/>
<path d="M258.191 46.4541H251.132L246.359 38.3262H246.16L241.388 46.4541H234.378L239.959 37.4541H252.584L258.191 46.4541ZM246.16 29.042H246.359L251.058 21H257.943L251.634 31.4541H240.896L234.577 21H241.512L246.16 29.042Z" fill="#430E00"/>
<path d="M40.5963 18.1297C40.7856 18.2647 40.9272 18.4573 41.0004 18.6795C41.0737 18.9017 41.0747 19.1418 41.0034 19.3646L37.3392 31.44H44.1248C44.2927 31.4793 44.449 31.5585 44.5807 31.6711C44.7124 31.7836 44.8157 31.9263 44.882 32.0872C44.9483 32.2482 44.9758 32.4227 44.9621 32.5965C44.9484 32.7703 44.894 32.9383 44.8033 33.0866L28.518 50.6508C28.342 50.7562 28.1402 50.8092 27.9357 50.8037C27.7312 50.7983 27.5324 50.7345 27.3623 50.6198C27.1921 50.505 27.0574 50.344 26.9737 50.1553C26.8901 49.9666 26.8609 49.7578 26.8894 49.553L30.5536 37.6149H23.7681C23.5779 37.5863 23.3987 37.5072 23.2486 37.3857C23.0986 37.2642 22.9832 37.1045 22.9142 36.9231C22.8452 36.7417 22.825 36.545 22.8558 36.3531C22.8866 36.1612 22.9673 35.981 23.0895 35.831L39.3749 18.2669C39.5409 18.1219 39.7465 18.0312 39.9645 18.0067C40.1826 17.9822 40.4028 18.0251 40.5963 18.1297Z" fill="#003543"/>
<path d="M33.8418 0.277344V4.85156L33.3418 4.57422L4 20.8545V53.1445L33.3418 69.4248L33.8418 69.1465V73.7217L33.3418 74L0 55.5V18.5L33.3418 0L33.8418 0.277344Z" fill="#003543"/>
<path d="M33.8418 8.2832L7.8418 22.6016V51.2373L33.8418 65.5547V67.8389L5.8418 52.4199V21.4199L33.8418 6V8.2832Z" fill="#003543"/>
</svg>
