<svg width="62" height="74" viewBox="0 0 62 74" fill="none" xmlns="http://www.w3.org/2000/svg">
<path d="M39.7545 21.1297C39.9438 21.2647 40.0854 21.4573 40.1586 21.6795C40.2319 21.9017 40.2329 22.1418 40.1616 22.3646L36.4974 34.44H43.283C43.451 34.4793 43.6072 34.5585 43.7389 34.6711C43.8706 34.7836 43.9739 34.9263 44.0402 35.0872C44.1065 35.2482 44.134 35.4227 44.1203 35.5965C44.1066 35.7703 44.0522 35.9383 43.9615 36.0866L27.6762 53.6508C27.5002 53.7562 27.2984 53.8092 27.0939 53.8037C26.8894 53.7983 26.6906 53.7345 26.5205 53.6198C26.3503 53.505 26.2156 53.344 26.1319 53.1553C26.0483 52.9666 26.0191 52.7578 26.0476 52.553L29.7118 40.6149H22.9263C22.7361 40.5863 22.5569 40.5072 22.4068 40.3857C22.2568 40.2642 22.1414 40.1045 22.0724 39.9231C22.0034 39.7417 21.9832 39.545 22.014 39.3531C22.0448 39.1612 22.1255 38.981 22.2477 38.831L38.5331 21.2669C38.6991 21.1219 38.9047 21.0312 39.1227 21.0067C39.3408 20.9822 39.561 21.0251 39.7545 21.1297Z" fill="#003543"/>
<path d="M61.8418 15.8135V20.3867L33.3418 4.57422L4 20.8545V53.1445L33.3418 69.4248L61.8418 53.6113V58.1855L33.3418 74L0 55.5V18.5L33.3418 0L61.8418 15.8135Z" fill="#003543"/>
<path d="M60.5791 21H56.4336L33.3418 8.2832L7.19629 22.6816V51.3174L33.3418 65.7158L56.4316 53H60.5791L33.3418 68L5.19629 52.5V21.5L33.3418 6L60.5791 21Z" fill="#003543"/>
</svg>
