<svg width="143" height="172" viewBox="0 0 143 172" fill="none" xmlns="http://www.w3.org/2000/svg">
<path d="M91.9267 48.8594C92.3644 49.1716 92.6918 49.6171 92.8612 50.1309C93.0306 50.6447 93.033 51.1998 92.8681 51.7151L84.3952 79.6375H100.086C100.474 79.7285 100.836 79.9117 101.14 80.1719C101.445 80.4322 101.683 80.7621 101.837 81.1342C101.99 81.5063 102.054 81.91 102.022 82.3119C101.99 82.7138 101.864 83.1022 101.655 83.4451L63.9974 124.06C63.5905 124.303 63.1238 124.426 62.651 124.413C62.1781 124.401 61.7185 124.253 61.325 123.988C60.9314 123.723 60.62 123.35 60.4266 122.914C60.2331 122.478 60.1656 121.995 60.2316 121.521L68.7046 93.9161H53.014C52.5742 93.8501 52.1597 93.6672 51.8128 93.3861C51.4659 93.1051 51.199 92.7359 51.0394 92.3164C50.8798 91.8969 50.8333 91.442 50.9045 90.9983C50.9758 90.5547 51.1622 90.1381 51.4449 89.7912L89.1024 49.1767C89.4863 48.8415 89.9617 48.6317 90.4659 48.5751C90.97 48.5185 91.4793 48.6176 91.9267 48.8594Z" fill="#003543"/>
<path d="M143 36.5654V47.1426L77.0977 10.5771L9.24902 48.2227V122.889L77.0977 160.534L143 123.968V134.548L77.0977 171.114L0 128.336V42.7783L77.0977 0L143 36.5654Z" fill="#003543"/>
<path d="M140.081 48.5596H130.494L77.0977 19.1533L16.6406 52.4482V118.664L77.0977 151.958L130.491 122.555H140.081L77.0977 157.24L12.0156 121.398V49.7158L77.0977 13.874L140.081 48.5596Z" fill="#003543"/>
</svg>
