<svg width="2140" height="508" viewBox="0 0 2140 508" fill="none" xmlns="http://www.w3.org/2000/svg">
<g filter="url(#filter0_f_1285_2)">
<path d="M150 358H1990V239H1382L1211 150H929L758 239H150V358Z" fill="#B0C0C5"/>
</g>
<path d="M178.906 202.5V150H387.5V202.5H315.313V390H251.094V202.5H178.906ZM412.021 390V150H515.615C533.428 150 549.014 153.242 562.373 159.727C575.732 166.211 586.123 175.547 593.545 187.734C600.967 199.922 604.678 214.531 604.678 231.562C604.678 248.75 600.85 263.242 593.193 275.039C585.615 286.836 574.951 295.742 561.201 301.758C547.529 307.773 531.553 310.781 513.271 310.781H451.396V260.156H500.146C507.803 260.156 514.326 259.219 519.717 257.344C525.186 255.391 529.365 252.305 532.256 248.086C535.225 243.867 536.709 238.359 536.709 231.562C536.709 224.688 535.225 219.102 532.256 214.805C529.365 210.43 525.186 207.227 519.717 205.195C514.326 203.086 507.803 202.031 500.146 202.031H477.178V390H412.021ZM552.646 279.844L612.646 390H541.865L483.271 279.844H552.646ZM864.951 270C864.951 296.719 859.756 319.258 849.365 337.617C838.975 355.898 824.951 369.766 807.295 379.219C789.639 388.594 769.951 393.281 748.232 393.281C726.357 393.281 706.592 388.555 688.936 379.102C671.357 369.57 657.373 355.664 646.982 337.383C636.67 319.023 631.514 296.562 631.514 270C631.514 243.281 636.67 220.781 646.982 202.5C657.373 184.141 671.357 170.273 688.936 160.898C706.592 151.445 726.357 146.719 748.232 146.719C769.951 146.719 789.639 151.445 807.295 160.898C824.951 170.273 838.975 184.141 849.365 202.5C859.756 220.781 864.951 243.281 864.951 270ZM797.92 270C797.92 255.625 796.006 243.516 792.178 233.672C788.428 223.75 782.842 216.25 775.42 211.172C768.076 206.016 759.014 203.437 748.232 203.437C737.451 203.437 728.35 206.016 720.928 211.172C713.584 216.25 707.998 223.75 704.17 233.672C700.42 243.516 698.545 255.625 698.545 270C698.545 284.375 700.42 296.523 704.17 306.445C707.998 316.289 713.584 323.789 720.928 328.945C728.35 334.023 737.451 336.562 748.232 336.562C759.014 336.562 768.076 334.023 775.42 328.945C782.842 323.789 788.428 316.289 792.178 306.445C796.006 296.523 797.92 284.375 797.92 270ZM1102.75 150V390H1048.38L961.66 263.906H960.254V390H895.098V150H950.41L1035.72 275.625H1037.6V150H1102.75ZM1260.25 390L1189.47 150H1262.13L1294.94 297.656H1296.82L1335.72 150H1392.91L1431.82 298.125H1433.69L1466.5 150H1539.16L1468.38 390H1406.04L1365.25 255.938H1363.38L1322.6 390H1260.25ZM1560.25 390V150H1733.22V202.5H1625.41V243.75H1724.32V296.25H1625.41V337.5H1732.75V390H1560.25ZM1765.54 390V150H1869.6C1887.88 150 1903.23 152.461 1915.65 157.383C1928.15 162.305 1937.57 169.258 1943.9 178.242C1950.3 187.227 1953.51 197.812 1953.51 210C1953.51 218.828 1951.55 226.875 1947.65 234.141C1943.82 241.406 1938.43 247.5 1931.47 252.422C1924.52 257.266 1916.4 260.625 1907.1 262.5V264.844C1917.41 265.234 1926.79 267.852 1935.22 272.695C1943.66 277.461 1950.38 284.062 1955.38 292.5C1960.38 300.859 1962.88 310.703 1962.88 322.031C1962.88 335.156 1959.44 346.836 1952.57 357.07C1945.77 367.305 1936.08 375.352 1923.51 381.211C1910.93 387.07 1895.93 390 1878.51 390H1765.54ZM1830.69 337.969H1861.16C1872.1 337.969 1880.3 335.937 1885.77 331.875C1891.24 327.734 1893.97 321.641 1893.97 313.594C1893.97 307.969 1892.69 303.203 1890.11 299.297C1887.53 295.391 1883.86 292.422 1879.09 290.391C1874.4 288.359 1868.74 287.344 1862.1 287.344H1830.69V337.969ZM1830.69 247.031H1857.41C1863.12 247.031 1868.15 246.133 1872.53 244.336C1876.9 242.539 1880.3 239.961 1882.72 236.602C1885.22 233.164 1886.47 228.984 1886.47 224.062C1886.47 216.641 1883.82 210.977 1878.51 207.07C1873.19 203.086 1866.47 201.094 1858.35 201.094H1830.69V247.031Z" fill="#E6EBEC" fill-opacity="0.35"/>
<defs>
<filter id="filter0_f_1285_2" x="0" y="0" width="2140" height="508" filterUnits="userSpaceOnUse" color-interpolation-filters="sRGB">
<feFlood flood-opacity="0" result="BackgroundImageFix"/>
<feBlend mode="normal" in="SourceGraphic" in2="BackgroundImageFix" result="shape"/>
<feGaussianBlur stdDeviation="75" result="effect1_foregroundBlur_1285_2"/>
</filter>
</defs>
</svg>
