<svg width="33" height="32" viewBox="0 0 33 32" fill="none" xmlns="http://www.w3.org/2000/svg">
<path d="M16.5 15.95C14.2312 15.95 12.2891 15.1691 10.6734 13.6073C9.05781 12.0456 8.25 10.1681 8.25 7.975C8.25 5.78187 9.05781 3.90443 10.6734 2.34266C12.2891 0.780886 14.2312 0 16.5 0C18.7687 0 20.7109 0.780886 22.3266 2.34266C23.9422 3.90443 24.75 5.78187 24.75 7.975C24.75 10.1681 23.9422 12.0456 22.3266 13.6073C20.7109 15.1691 18.7687 15.95 16.5 15.95ZM0 27.9125V26.3175C0 25.1877 0.301125 24.1496 0.903375 23.2033C1.50563 22.2569 2.3045 21.5338 3.3 21.0341C5.43125 20.004 7.59687 19.2317 9.79687 18.7173C11.9969 18.2029 14.2312 17.9451 16.5 17.9437C18.7687 17.9424 21.0031 18.2003 23.2031 18.7173C25.4031 19.2344 27.5687 20.0066 29.7 21.0341C30.6969 21.5325 31.4964 22.2556 32.0987 23.2033C32.7009 24.151 33.0014 25.189 33 26.3175V27.9125C33 29.0091 32.5964 29.9481 31.7893 30.7297C30.9822 31.5112 30.0107 31.9013 28.875 31.9H4.125C2.99062 31.9 2.01987 31.5099 1.21275 30.7297C0.405625 29.9494 0.001375 29.0104 0 27.9125Z" fill="white"/>
</svg>
