<svg width="15" height="15" viewBox="0 0 15 15" fill="none" xmlns="http://www.w3.org/2000/svg">
<path fill-rule="evenodd" clip-rule="evenodd" d="M5.6962 0.00975001V15H10.443C12.5909 15 13.6656 15 14.3324 14.3408C15 13.6823 15 12.621 15 10.5V4.5C15 2.379 15 1.31775 14.3324 0.65925C13.6656 -4.47035e-08 12.5909 0 10.443 0H5.88608L5.6962 0.00975001ZM7.21519 3.375C7.21519 3.22582 7.2752 3.08274 7.38203 2.97725C7.48885 2.87176 7.63374 2.8125 7.78481 2.8125H11.5823C11.7334 2.8125 11.8782 2.87176 11.9851 2.97725C12.0919 3.08274 12.1519 3.22582 12.1519 3.375C12.1519 3.52418 12.0919 3.66726 11.9851 3.77275C11.8782 3.87824 11.7334 3.9375 11.5823 3.9375H7.78481C7.63374 3.9375 7.48885 3.87824 7.38203 3.77275C7.2752 3.66726 7.21519 3.52418 7.21519 3.375ZM7.21519 6C7.21519 5.85082 7.2752 5.70774 7.38203 5.60225C7.48885 5.49676 7.63374 5.4375 7.78481 5.4375H11.5823C11.7334 5.4375 11.8782 5.49676 11.9851 5.60225C12.0919 5.70774 12.1519 5.85082 12.1519 6C12.1519 6.14918 12.0919 6.29226 11.9851 6.39775C11.8782 6.50324 11.7334 6.5625 11.5823 6.5625H7.78481C7.63374 6.5625 7.48885 6.50324 7.38203 6.39775C7.2752 6.29226 7.21519 6.14918 7.21519 6ZM1.32911 3.9375C1.33519 2.1855 1.39063 1.257 1.99671 0.65925C2.50937 0.153 3.26203 0.0352499 4.55696 0.00824994V14.9918C3.26203 14.9648 2.50937 14.847 1.99671 14.3408C1.39063 13.743 1.33519 12.8145 1.32987 11.0625H2.08861C2.23968 11.0625 2.38457 11.0032 2.49139 10.8977C2.59821 10.7923 2.65823 10.6492 2.65823 10.5C2.65823 10.3508 2.59821 10.2077 2.49139 10.1023C2.38457 9.99676 2.23968 9.9375 2.08861 9.9375H1.32911V8.0625H2.08861C2.23968 8.0625 2.38457 8.00324 2.49139 7.89775C2.59821 7.79226 2.65823 7.64918 2.65823 7.5C2.65823 7.35082 2.59821 7.20774 2.49139 7.10225C2.38457 6.99676 2.23968 6.9375 2.08861 6.9375H1.32911V5.0625H2.08861C2.23968 5.0625 2.38457 5.00324 2.49139 4.89775C2.59821 4.79226 2.65823 4.64918 2.65823 4.5C2.65823 4.35082 2.59821 4.20774 2.49139 4.10225C2.38457 3.99676 2.23968 3.9375 2.08861 3.9375H1.32911ZM1.32911 3.9375H0.56962C0.418548 3.9375 0.273662 3.99676 0.166838 4.10225C0.0600134 4.20774 0 4.35082 0 4.5C0 4.64918 0.0600134 4.79226 0.166838 4.89775C0.273662 5.00324 0.418548 5.0625 0.56962 5.0625H1.32911V3.9375ZM1.32911 8.0625H0.56962C0.418548 8.0625 0.273662 8.00324 0.166838 7.89775C0.0600134 7.79226 0 7.64918 0 7.5C0 7.35082 0.0600134 7.20774 0.166838 7.10225C0.273662 6.99676 0.418548 6.9375 0.56962 6.9375H1.32911V8.0625ZM1.32911 9.9375H0.56962C0.418548 9.9375 0.273662 9.99676 0.166838 10.1023C0.0600134 10.2077 0 10.3508 0 10.5C0 10.6492 0.0600134 10.7923 0.166838 10.8977C0.273662 11.0032 0.418548 11.0625 0.56962 11.0625H1.32987L1.32911 9.9375Z" fill="white"/>
</svg>
