<svg width="44" height="44" viewBox="0 0 44 44" fill="none" xmlns="http://www.w3.org/2000/svg">
<path fill-rule="evenodd" clip-rule="evenodd" d="M21.8936 0H22.1064C23.9462 0 25.4791 9.14862e-08 26.6947 0.163721C27.9799 0.335628 29.1403 0.716279 30.0714 1.64744C31.0047 2.58065 31.3853 3.74102 31.5572 5.02419C31.68 5.92465 31.7107 6.99702 31.7189 8.23721C33.045 8.28019 34.2279 8.36 35.2798 8.49916C37.6783 8.82251 39.6205 9.50195 41.1533 11.0327C42.6841 12.5656 43.3635 14.5077 43.6869 16.9062C44 19.2393 44 22.2169 44 25.9784V26.2076C44 29.9691 44 32.9488 43.6869 35.2798C43.3635 37.6783 42.6841 39.6205 41.1533 41.1533C39.6205 42.6841 37.6783 43.3635 35.2798 43.6869C32.9468 44 29.9691 44 26.2076 44H17.7924C14.0309 44 11.0512 44 8.72019 43.6869C6.32167 43.3635 4.37954 42.6841 2.8467 41.1533C1.31591 39.6205 0.636465 37.6783 0.313116 35.2798C0 32.9468 0 29.9691 0 26.2076V25.9784C0 22.2169 0 19.2372 0.313116 16.9062C0.636465 14.5077 1.31591 12.5656 2.8467 11.0327C4.37954 9.50195 6.32167 8.82251 8.72019 8.49916C9.90223 8.35434 11.0906 8.26692 12.2811 8.23721C12.2893 6.99702 12.322 5.92465 12.4428 5.02419C12.6147 3.74102 12.9953 2.58065 13.9265 1.64744C14.8597 0.716279 16.0201 0.337675 17.3033 0.163721C18.5209 9.14862e-08 20.0558 0 21.8936 0ZM15.3529 8.19014C16.1265 8.18605 16.9397 8.18468 17.7924 8.18605H26.2076C27.0603 8.18605 27.8735 8.18741 28.6471 8.19014C28.6389 7.02363 28.6102 6.14363 28.5161 5.43349C28.3872 4.49005 28.1682 4.08484 27.9021 3.81879C27.6361 3.55274 27.2309 3.33377 26.2854 3.20484C25.299 3.07386 23.9728 3.06977 22 3.06977C20.0272 3.06977 18.701 3.07386 17.7126 3.20688C16.7691 3.33377 16.3639 3.55274 16.0979 3.82084C15.8318 4.08893 15.6128 4.49005 15.4839 5.43349C15.3898 6.14158 15.3611 7.02158 15.3529 8.19014ZM9.12744 11.5423C7.06865 11.8186 5.88167 12.3384 5.01395 13.2041C4.15033 14.0698 3.63051 15.2567 3.35423 17.3155C3.07181 19.4173 3.06772 22.1903 3.06772 26.093C3.06772 29.9957 3.07181 32.7687 3.35423 34.8726C3.63051 36.9293 4.15033 38.1163 5.016 38.982C5.88167 39.8476 7.06865 40.3674 9.12744 40.6437C11.2313 40.9261 14.0022 40.9302 17.9049 40.9302H26.091C29.9937 40.9302 32.7667 40.9261 34.8705 40.6437C36.9273 40.3674 38.1142 39.8476 38.9799 38.982C39.8456 38.1163 40.3654 36.9293 40.6417 34.8705C40.9241 32.7687 40.9282 29.9957 40.9282 26.093C40.9282 22.1903 40.9241 19.4193 40.6417 17.3135C40.3654 15.2567 39.8456 14.0698 38.9799 13.2041C38.1142 12.3384 36.9273 11.8186 34.8685 11.5423C32.7667 11.2599 29.9937 11.2558 26.091 11.2558H17.9049C14.0022 11.2558 11.2333 11.2599 9.12744 11.5423ZM22 16.3721C22.4071 16.3721 22.7975 16.5338 23.0853 16.8217C23.3732 17.1095 23.5349 17.4999 23.5349 17.907V17.9274C25.7635 18.4882 27.6279 20.2461 27.6279 22.6815C27.6279 23.0886 27.4662 23.479 27.1783 23.7668C26.8905 24.0547 26.5001 24.2164 26.093 24.2164C25.6859 24.2164 25.2955 24.0547 25.0077 23.7668C24.7199 23.479 24.5581 23.0886 24.5581 22.6815C24.5581 21.8956 23.6863 20.8069 22 20.8069C20.3137 20.8069 19.4419 21.8956 19.4419 22.6815C19.4419 23.4673 20.3137 24.5581 22 24.5581C24.8344 24.5581 27.6279 26.5228 27.6279 29.5046C27.6279 31.9399 25.7635 33.6958 23.5349 34.2586V34.2791C23.5349 34.6861 23.3732 35.0766 23.0853 35.3644C22.7975 35.6522 22.4071 35.814 22 35.814C21.5929 35.814 21.2025 35.6522 20.9147 35.3644C20.6268 35.0766 20.4651 34.6861 20.4651 34.2791V34.2586C18.2365 33.6979 16.3721 31.9399 16.3721 29.5046C16.3721 29.0975 16.5338 28.7071 16.8217 28.4192C17.1095 28.1314 17.4999 27.9697 17.907 27.9697C18.3141 27.9697 18.7045 28.1314 18.9923 28.4192C19.2801 28.7071 19.4419 29.0975 19.4419 29.5046C19.4419 30.2904 20.3137 31.3792 22 31.3792C23.6863 31.3792 24.5581 30.2904 24.5581 29.5046C24.5581 28.7187 23.6863 27.6279 22 27.6279C19.1656 27.6279 16.3721 25.6633 16.3721 22.6815C16.3721 20.2461 18.2365 18.4882 20.4651 17.9274V17.907C20.4651 17.4999 20.6268 17.1095 20.9147 16.8217C21.2025 16.5338 21.5929 16.3721 22 16.3721Z" fill="#003543"/>
</svg>
