<svg width="14" height="15" viewBox="0 0 14 15" fill="none" xmlns="http://www.w3.org/2000/svg">
<path fill-rule="evenodd" clip-rule="evenodd" d="M6.87205 0C5.06363 0 3.41615 0.615797 2.44128 1.11892C2.3532 1.16432 2.27099 1.20862 2.19465 1.25182C2.04332 1.33684 1.9144 1.41609 1.81191 1.48584L2.92091 3.16896L3.44297 3.38317C5.4832 4.44431 8.21926 4.44431 10.2599 3.38317L10.8524 3.06619L11.901 1.48584C11.6835 1.34019 11.4577 1.20828 11.2248 1.09085C10.2547 0.593097 8.64644 0 6.87245 0M4.29334 1.90517C3.90072 1.829 3.51288 1.72867 3.13189 1.6047C4.04511 1.18661 5.40593 0.742919 6.87245 0.742919C7.88816 0.742919 8.84862 0.955889 9.64293 1.22582C8.7121 1.36078 7.71881 1.58985 6.77236 1.87174C6.02769 2.09379 5.15731 2.06985 4.29334 1.90517ZM10.6831 3.99525L10.5846 4.04643C8.34016 5.21364 5.3631 5.21364 3.11868 4.04643L3.0254 3.99773C-0.346825 7.81179 -2.92113 14.8571 6.87205 14.8571C16.6652 14.8571 14.0285 7.68096 10.6831 3.99525ZM6.45608 7.42919C6.24371 7.42919 6.04005 7.51616 5.88988 7.67096C5.73972 7.82577 5.65536 8.03573 5.65536 8.25466C5.65536 8.47358 5.73972 8.68354 5.88988 8.83835C6.04005 8.99315 6.24371 9.08012 6.45608 9.08012V7.42919ZM7.25679 6.60372V6.19099H6.45608V6.60372C6.03135 6.60372 5.62402 6.77766 5.32369 7.08727C5.02336 7.39688 4.85464 7.8168 4.85464 8.25466C4.85464 8.69251 5.02336 9.11243 5.32369 9.42204C5.62402 9.73165 6.03135 9.90559 6.45608 9.90559V11.5565C6.10776 11.5565 5.8111 11.3275 5.7006 11.0063C5.6842 10.9538 5.65776 10.9052 5.62282 10.8634C5.58788 10.8216 5.54517 10.7874 5.4972 10.7629C5.44923 10.7384 5.39698 10.7241 5.34355 10.7208C5.29011 10.7174 5.23658 10.7252 5.1861 10.7436C5.13563 10.762 5.08924 10.7906 5.04969 10.8278C5.01014 10.865 4.97822 10.91 4.95583 10.9601C4.93344 11.0102 4.92102 11.0645 4.91932 11.1196C4.91762 11.1748 4.92666 11.2297 4.94592 11.2812C5.05631 11.6032 5.26081 11.8819 5.53128 12.0791C5.80174 12.2762 6.12484 12.382 6.45608 12.382V12.7947H7.25679V12.382C7.68152 12.382 8.08885 12.208 8.38918 11.8984C8.68951 11.5888 8.85823 11.1689 8.85823 10.7311C8.85823 10.2932 8.68951 9.87328 8.38918 9.56367C8.08885 9.25406 7.68152 9.08012 7.25679 9.08012V7.42919C7.60511 7.42919 7.90177 7.65826 8.01227 7.97936C8.02866 8.0319 8.05511 8.08051 8.09005 8.12232C8.12498 8.16414 8.1677 8.1983 8.21567 8.2228C8.26364 8.2473 8.31588 8.26163 8.36932 8.26495C8.42275 8.26827 8.47629 8.2605 8.52677 8.24212C8.57724 8.22374 8.62362 8.1951 8.66318 8.15792C8.70273 8.12073 8.73465 8.07574 8.75704 8.02561C8.77943 7.97549 8.79185 7.92124 8.79355 7.86608C8.79525 7.81092 8.78621 7.75597 8.76695 7.70448C8.65656 7.38253 8.45205 7.10378 8.18159 6.90664C7.91113 6.7095 7.58803 6.60367 7.25679 6.60372ZM7.25679 9.90559V11.5565C7.46916 11.5565 7.67282 11.4696 7.82299 11.3147C7.97315 11.1599 8.05751 10.95 8.05751 10.7311C8.05751 10.5121 7.97315 10.3022 7.82299 10.1474C7.67282 9.99256 7.46916 9.90559 7.25679 9.90559Z" fill="white"/>
</svg>
