<svg width="20" height="20" viewBox="0 0 20 20" fill="none" xmlns="http://www.w3.org/2000/svg">
<path d="M10 18.5714C11.1256 18.5714 12.2402 18.3497 13.2801 17.919C14.3201 17.4882 15.265 16.8568 16.0609 16.0609C16.8568 15.265 17.4882 14.3201 17.919 13.2801C18.3497 12.2402 18.5714 11.1256 18.5714 10C18.5714 8.87438 18.3497 7.75979 17.919 6.71986C17.4882 5.67992 16.8568 4.73502 16.0609 3.93908C15.265 3.14315 14.3201 2.51179 13.2801 2.08103C12.2402 1.65028 11.1256 1.42857 10 1.42857C7.72672 1.42857 5.54654 2.33163 3.93908 3.93908C2.33163 5.54654 1.42857 7.72672 1.42857 10C1.42857 12.2733 2.33163 14.4535 3.93908 16.0609C5.54654 17.6684 7.72672 18.5714 10 18.5714ZM10 20C7.34784 20 4.8043 18.9464 2.92893 17.0711C1.05357 15.1957 0 12.6522 0 10C0 7.34784 1.05357 4.8043 2.92893 2.92893C4.8043 1.05357 7.34784 0 10 0C12.6522 0 15.1957 1.05357 17.0711 2.92893C18.9464 4.8043 20 7.34784 20 10C20 12.6522 18.9464 15.1957 17.0711 17.0711C15.1957 18.9464 12.6522 20 10 20Z" fill="white"/>
<path d="M2.85693 9.9993C2.85693 8.1049 3.60948 6.28809 4.94903 4.94854C6.28857 3.60899 8.10539 2.85645 9.99979 2.85645C11.8942 2.85645 13.711 3.60899 15.0506 4.94854C16.3901 6.28809 17.1426 8.1049 17.1426 9.9993C17.1426 10.1887 17.0674 10.3704 16.9334 10.5044C16.7995 10.6383 16.6178 10.7136 16.4284 10.7136C16.2389 10.7136 16.0572 10.6383 15.9233 10.5044C15.7893 10.3704 15.7141 10.1887 15.7141 9.9993C15.7141 8.48378 15.112 7.03033 14.0404 5.95869C12.9688 4.88706 11.5153 4.28502 9.99979 4.28502C8.48427 4.28502 7.03082 4.88706 5.95918 5.95869C4.88754 7.03033 4.2855 8.48378 4.2855 9.9993C4.2855 10.1887 4.21025 10.3704 4.0763 10.5044C3.94234 10.6383 3.76066 10.7136 3.57122 10.7136C3.38178 10.7136 3.2001 10.6383 3.06614 10.5044C2.93219 10.3704 2.85693 10.1887 2.85693 9.9993Z" fill="white"/>
<path d="M11.3042 12.5864C11.7051 12.8943 11.9842 13.3341 12.0922 13.8279C12.2002 14.3217 12.1302 14.8377 11.8945 15.2849C11.6588 15.7321 11.2726 16.0815 10.8042 16.2715C10.3358 16.4615 9.81529 16.4798 9.3347 16.3231C8.85411 16.1664 8.44438 15.8449 8.17791 15.4154C7.91143 14.9859 7.80538 14.476 7.87849 13.9758C7.95161 13.4756 8.19917 13.0174 8.57744 12.6821C8.95571 12.3469 9.44033 12.1561 9.94565 12.1436L11.3071 7.95212C11.3353 7.86198 11.3811 7.77833 11.4419 7.70601C11.5026 7.63368 11.5771 7.57413 11.661 7.53079C11.745 7.48746 11.8366 7.4612 11.9308 7.45353C12.0249 7.44586 12.1197 7.45694 12.2095 7.48613C12.2993 7.51532 12.3825 7.56203 12.4541 7.62357C12.5258 7.68511 12.5845 7.76025 12.6269 7.84464C12.6694 7.92903 12.6946 8.021 12.7013 8.11522C12.7079 8.20944 12.6958 8.30404 12.6657 8.39355L11.3042 12.585V12.5864ZM9.77851 14.9664C9.86781 14.9955 9.96196 15.0067 10.0556 14.9994C10.1492 14.9921 10.2405 14.9664 10.3242 14.9238C10.4079 14.8812 10.4824 14.8226 10.5434 14.7512C10.6045 14.6798 10.6509 14.5971 10.6799 14.5078C10.709 14.4185 10.7202 14.3244 10.7129 14.2308C10.7056 14.1371 10.6799 14.0459 10.6373 13.9621C10.5948 13.8784 10.5361 13.8039 10.4647 13.7429C10.3934 13.6819 10.3107 13.6355 10.2214 13.6064C10.041 13.5477 9.84473 13.563 9.67568 13.649C9.50663 13.735 9.37866 13.8846 9.31994 14.065C9.26121 14.2453 9.27653 14.4416 9.36253 14.6107C9.44853 14.7797 9.59816 14.9077 9.77851 14.9664Z" fill="white"/>
</svg>
