<svg width="8" height="12" viewBox="0 0 8 12" fill="none" xmlns="http://www.w3.org/2000/svg">
<path d="M6.42007 0.0474299C6.48852 0.0968171 6.53973 0.167302 6.56621 0.248582C6.5927 0.329863 6.59308 0.417678 6.56729 0.499194L5.24231 4.91645H7.69599C7.75673 4.93084 7.81325 4.95982 7.86086 5.00099C7.90848 5.04216 7.94582 5.09434 7.9698 5.15321C7.99378 5.21208 8.00371 5.27595 7.99876 5.33952C7.99381 5.4031 7.97414 5.46455 7.94135 5.5188L2.05252 11.9439C1.98889 11.9825 1.91591 12.0019 1.84197 11.9999C1.76803 11.9979 1.69615 11.9745 1.63461 11.9326C1.57307 11.8906 1.52437 11.8317 1.49412 11.7627C1.46387 11.6936 1.45331 11.6172 1.46364 11.5423L2.78863 7.17527H0.334948C0.266184 7.16483 0.201363 7.1359 0.147111 7.09144C0.0928597 7.04698 0.0511232 6.98858 0.0261679 6.92221C0.0012126 6.85584 -0.00606653 6.78389 0.00507472 6.7137C0.016216 6.64351 0.045378 6.5776 0.0895798 6.52272L5.97841 0.097626C6.03845 0.0445972 6.11279 0.0114169 6.19163 0.00245643C6.27047 -0.00650403 6.35012 0.00917569 6.42007 0.0474299Z" fill="white"/>
</svg>
