<svg width="29" height="43" viewBox="0 0 29 43" fill="none" xmlns="http://www.w3.org/2000/svg">
<path d="M23.2728 0.169957C23.5209 0.346928 23.7065 0.599498 23.8025 0.890753C23.8985 1.18201 23.8999 1.49668 23.8064 1.78878L19.0034 17.6173H27.898C28.1181 17.6688 28.323 17.7727 28.4956 17.9202C28.6682 18.0677 28.8036 18.2547 28.8905 18.4657C28.9775 18.6766 29.0134 18.9055 28.9955 19.1333C28.9776 19.3611 28.9062 19.5813 28.7874 19.7757L7.4404 42.799C7.20974 42.9372 6.94516 43.0067 6.67713 42.9995C6.40911 42.9923 6.14855 42.9087 5.92546 42.7583C5.70237 42.608 5.52584 42.3969 5.41619 42.1495C5.30654 41.9021 5.26824 41.6284 5.3057 41.36L10.1088 25.7114H1.21419C0.964916 25.674 0.72994 25.5703 0.533278 25.411C0.336617 25.2517 0.185322 25.0424 0.0948587 24.8046C0.00439568 24.5668 -0.0219912 24.3089 0.0183958 24.0574C0.0587829 23.8059 0.164495 23.5697 0.324727 23.3731L21.6717 0.349826C21.8894 0.159807 22.1589 0.0409106 22.4447 0.00880222C22.7305 -0.0233061 23.0192 0.0328796 23.2728 0.169957Z" fill="white"/>
</svg>
