<svg width="39" height="39" viewBox="0 0 39 39" fill="none" xmlns="http://www.w3.org/2000/svg">
<circle cx="19.5" cy="19.5" r="19.5" fill="#222649"/>
<path d="M25.0798 11H16.8535V22.1011H27.9546V13.8748C27.9546 12.282 26.6726 11 25.0798 11ZM14.2895 11H12.8748C11.282 11 10 12.282 10 13.8748V15.2895H14.2895V11ZM10 17.8535H14.2895V22.143H10V17.8535ZM23.7105 28.9546H25.1252C26.718 28.9546 28 27.6726 28 26.0798V24.7105H23.7105V28.9546ZM16.8535 24.7105H21.143V29H16.8535V24.7105ZM10 24.7105V26.1252C10 27.718 11.282 29 12.8748 29H14.2895V24.7105H10Z" fill="white"/>
</svg>
