<svg width="38" height="38" viewBox="0 0 38 38" fill="none" xmlns="http://www.w3.org/2000/svg">
<circle cx="19" cy="19" r="19" fill="#222649"/>
<path d="M21.624 15.9932H16.4151C16.194 15.9932 16.0127 16.1744 16.0127 16.3955V21.6045C16.0127 21.8256 16.194 22.0069 16.4151 22.0069H21.624C21.8451 22.0069 22.0264 21.8256 22.0264 21.6045V16.3955C22.0264 16.1744 21.8451 15.9932 21.624 15.9932Z" fill="white"/>
<path d="M15.6113 10H10.4024C10.1813 10 10 10.1813 10 10.4024V15.6113C10 15.8325 10.1813 16.0137 10.4024 16.0137H15.6113C15.8325 16.0137 16.0137 15.8325 16.0137 15.6113V10.4024C16.0124 10.1813 15.8325 10 15.6113 10Z" fill="white"/>
<path d="M27.6172 10H22.4082C22.1871 10 22.0059 10.1813 22.0059 10.4024V15.6113C22.0059 15.8325 22.1871 16.0137 22.4082 16.0137H27.6172C27.8383 16.0137 28.0196 15.8325 28.0196 15.6113V10.4024C28.0196 10.1813 27.8383 10 27.6172 10Z" fill="white"/>
<path d="M15.6113 21.9863H10.4024C10.1813 21.9863 10 22.1676 10 22.3887V27.5976C10 27.8187 10.1813 28 10.4024 28H15.6113C15.8325 28 16.0137 27.8187 16.0137 27.5976V22.3887C16.0124 22.1676 15.8325 21.9863 15.6113 21.9863Z" fill="white"/>
<path d="M27.6172 21.9863H22.4082C22.1871 21.9863 22.0059 22.1676 22.0059 22.3887V27.5976C22.0059 27.8187 22.1871 28 22.4082 28H27.6172C27.8383 28 28.0196 27.8187 28.0196 27.5976V22.3887C28.0196 22.1676 27.8383 21.9863 27.6172 21.9863Z" fill="white"/>
</svg>
