<svg width="45" height="46" viewBox="0 0 45 46" fill="none" xmlns="http://www.w3.org/2000/svg">
<path d="M16.0704 38.069C14.8843 38.069 13.8589 38.7114 13.3012 39.6552H4.25275L8.50859 31.5782C8.87342 31.6655 9.2495 31.7241 9.64166 31.7241C12.2999 31.7241 14.4632 29.5891 14.4632 26.9655C14.4632 24.3419 12.2999 22.2069 9.64166 22.2069C6.98337 22.2069 4.82009 24.3419 4.82009 26.9655C4.82009 28.0426 5.19778 29.0244 5.81012 29.8223L0.180136 40.5117C0.0532752 40.7534 -0.00843978 41.0232 0.000927534 41.2953C0.0102949 41.5673 0.0904294 41.8324 0.233623 42.065C0.376816 42.2976 0.57825 42.4899 0.81855 42.6235C1.05885 42.7571 1.32993 42.8273 1.60571 42.8276H13.3012C13.8589 43.7714 14.8843 44.4138 16.0704 44.4138C16.9229 44.4138 17.7405 44.0796 18.3433 43.4846C18.9461 42.8897 19.2848 42.0828 19.2848 41.2414C19.2848 40.4 18.9461 39.5931 18.3433 38.9981C17.7405 38.4032 16.9229 38.069 16.0704 38.069ZM9.64166 25.3793C10.0555 25.3976 10.4462 25.5727 10.7325 25.8682C11.0188 26.1636 11.1786 26.5567 11.1786 26.9655C11.1786 27.3743 11.0188 27.7674 10.7325 28.0629C10.4462 28.3584 10.0555 28.5335 9.64166 28.5517C9.2154 28.5517 8.80661 28.3846 8.5052 28.0871C8.2038 27.7897 8.03447 27.3862 8.03447 26.9655C8.03447 26.5448 8.2038 26.1414 8.5052 25.8439C8.80661 25.5464 9.2154 25.3793 9.64166 25.3793ZM44.8182 40.5101L38.3252 28.1837C38.59 27.5552 38.643 26.8592 38.4762 26.1986C38.3095 25.538 37.9319 24.9479 37.3992 24.5154C36.8664 24.083 36.2069 23.8311 35.518 23.7971C34.8291 23.763 34.1474 23.9486 33.5735 24.3263C32.9997 24.7041 32.5642 25.254 32.3314 25.8949C32.0986 26.5357 32.0809 27.2334 32.2808 27.885C32.4807 28.5365 32.8877 29.1073 33.4416 29.513C33.9955 29.9187 34.6669 30.1378 35.3567 30.1379C35.4772 30.1379 35.5929 30.1157 35.7103 30.1014L40.7456 39.6552H33.4538C33.1236 38.7299 32.5112 37.9282 31.7009 37.3602C30.8905 36.7922 29.9219 36.4857 28.9279 36.4828C26.2696 36.4828 24.1064 38.6178 24.1064 41.2414C24.1064 43.865 26.2696 46 28.9279 46C29.9219 45.9971 30.8905 45.6906 31.7009 45.1225C32.5112 44.5545 33.1236 43.7528 33.4538 42.8276H43.3926C43.6688 42.8276 43.9404 42.7574 44.1811 42.6237C44.4219 42.4899 44.6236 42.2972 44.7669 42.0642C44.9102 41.8311 44.9902 41.5655 44.9991 41.293C45.0081 41.0205 44.9458 40.7519 44.8182 40.5101ZM28.9279 42.8276C28.5141 42.8093 28.1234 42.6342 27.8371 42.3387C27.5508 42.0433 27.391 41.6502 27.391 41.2414C27.391 40.8326 27.5508 40.4395 27.8371 40.144C28.1234 39.8485 28.5141 39.6734 28.9279 39.6552C29.3417 39.6734 29.7325 39.8485 30.0188 40.144C30.305 40.4395 30.4648 40.8326 30.4648 41.2414C30.4648 41.6502 30.305 42.0433 30.0188 42.3387C29.7325 42.6342 29.3417 42.8093 28.9279 42.8276ZM30.5351 11.1034C30.1529 11.1076 29.7725 11.1566 29.402 11.2494L23.9247 0.856552C23.6483 0.328345 23.0729 0 22.4992 0C21.9254 0 21.35 0.328345 21.0736 0.854966L14.8168 12.7261C14.7011 12.7119 14.5854 12.6897 14.4632 12.6897C13.7734 12.6894 13.1018 12.9082 12.5476 13.3137C11.9935 13.7193 11.5863 14.29 11.3861 14.9415C11.1859 15.593 11.2034 16.2908 11.436 16.9318C11.6686 17.5728 12.104 18.1229 12.6778 18.5008C13.2516 18.8787 13.9334 19.0645 14.6223 19.0305C15.3113 18.9966 15.971 18.7448 16.5038 18.3124C17.0366 17.88 17.4143 17.2898 17.5811 16.6292C17.7479 15.9686 17.695 15.2725 17.4301 14.6439L22.4992 5.0251L26.7036 13.0037C26.0646 13.8234 25.7167 14.8279 25.7135 15.8621C25.7135 18.4857 27.8768 20.6207 30.5351 20.6207C33.1934 20.6207 35.3567 18.4857 35.3567 15.8621C35.3567 13.2385 33.1934 11.1034 30.5351 11.1034ZM30.5351 17.4483C30.1213 17.43 29.7306 17.2549 29.4443 16.9594C29.158 16.664 28.9982 16.2709 28.9982 15.8621C28.9982 15.4532 29.158 15.0602 29.4443 14.7647C29.7306 14.4692 30.1213 14.2941 30.5351 14.2759C30.9489 14.2941 31.3397 14.4692 31.6259 14.7647C31.9122 15.0602 32.072 15.4532 32.072 15.8621C32.072 16.2709 31.9122 16.664 31.6259 16.9594C31.3397 17.2549 30.9489 17.43 30.5351 17.4483Z" fill="#003543"/>
</svg>
