<svg width="45" height="45" viewBox="0 0 45 45" fill="none" xmlns="http://www.w3.org/2000/svg">
<path d="M11.25 28.125C10.6533 28.125 10.081 28.3621 9.65906 28.784C9.2371 29.206 9.00005 29.7783 9.00005 30.375V34.3845C6.09962 31.1051 4.49904 26.878 4.50006 22.5C4.49742 21.8382 4.5365 21.1769 4.61706 20.52C4.65999 20.2232 4.64315 19.9208 4.56754 19.6306C4.49193 19.3404 4.35906 19.0683 4.17676 18.8302C3.99446 18.5921 3.76639 18.3928 3.50597 18.2441C3.24555 18.0954 2.95803 18.0002 2.66031 17.9642C2.36259 17.9282 2.06068 17.9521 1.77232 18.0345C1.48396 18.1168 1.21497 18.256 0.981175 18.4438C0.747375 18.6316 0.553477 18.8643 0.41088 19.1281C0.268283 19.3919 0.179864 19.6816 0.150819 19.98C0.0482075 20.8161 -0.00214027 21.6577 6.96967e-05 22.5C0.00233983 27.8691 1.93214 33.0588 5.43831 37.125H2.25006C1.65333 37.125 1.08103 37.362 0.659078 37.784C0.237122 38.2059 6.96967e-05 38.7782 6.96967e-05 39.375C6.96967e-05 39.9717 0.237122 40.544 0.659078 40.9659C1.08103 41.3879 1.65333 41.6249 2.25006 41.6249H11.25C11.602 41.6208 11.9478 41.5324 12.2586 41.3672C12.5694 41.202 12.8362 40.9648 13.0365 40.6754L13.1198 40.5787C13.1355 40.5562 13.1355 40.5292 13.149 40.5067C13.2553 40.3253 13.3355 40.1299 13.3875 39.9262C13.4208 39.8113 13.4449 39.6939 13.4595 39.5752C13.4663 39.5077 13.5 39.447 13.5 39.375V30.375C13.5 29.7783 13.263 29.206 12.841 28.784C12.4191 28.3621 11.8468 28.125 11.25 28.125ZM14.625 9.00009H10.6133C13.8932 6.09915 18.1213 4.49854 22.5 4.5001C23.1619 4.49821 23.8232 4.53804 24.48 4.61935C25.0729 4.69096 25.6699 4.52413 26.1397 4.15555C26.6096 3.78697 26.9138 3.24684 26.9854 2.65399C27.057 2.06113 26.8902 1.46411 26.5216 0.994265C26.153 0.524418 25.6129 0.220232 25.02 0.148624C24.1839 0.0467644 23.3423 -0.0028317 22.5 0.000124747C17.131 0.00239488 11.9412 1.9322 7.87505 5.43835V2.25011C7.87505 1.65338 7.638 1.08109 7.21604 0.659131C6.79409 0.237176 6.22179 0.000124747 5.62506 0.000124747C5.02832 0.000124747 4.45603 0.237176 4.03407 0.659131C3.61211 1.08109 3.37506 1.65338 3.37506 2.25011V11.2501C3.38966 11.3989 3.41906 11.5459 3.46281 11.6888C3.51871 11.9659 3.62634 12.2301 3.78006 12.4673L3.80706 12.5056C3.95646 12.7206 4.14225 12.9079 4.35606 13.0591C4.38081 13.0771 4.39431 13.1041 4.41906 13.1221C4.45056 13.1446 4.48656 13.1513 4.52031 13.1693C4.6487 13.2456 4.78437 13.3089 4.92531 13.3583C5.11487 13.4241 5.31237 13.4642 5.51256 13.4776C5.55306 13.4776 5.58456 13.5001 5.62506 13.5001H14.625C15.2218 13.5001 15.7941 13.263 16.216 12.8411C16.638 12.4191 16.875 11.8468 16.875 11.2501C16.875 10.6533 16.638 10.081 16.216 9.65909C15.7941 9.23714 15.2218 9.00009 14.625 9.00009ZM41.535 33.309C41.4788 33.0326 41.3712 32.7693 41.2177 32.5327L41.193 32.4945C41.0429 32.2793 40.8563 32.0919 40.6417 31.941C40.617 31.923 40.6057 31.896 40.5787 31.878C40.5562 31.8622 40.527 31.8622 40.5022 31.8465C40.2158 31.6895 39.9032 31.5858 39.5797 31.5405C39.5077 31.5337 39.447 31.5 39.375 31.5H30.375C29.7783 31.5 29.206 31.737 28.784 32.159C28.3621 32.5809 28.125 33.1532 28.125 33.75C28.125 34.3467 28.3621 34.919 28.784 35.341C29.206 35.7629 29.7783 36 30.375 36H34.3845C31.1051 38.9004 26.878 40.501 22.5 40.4999C21.8381 40.5011 21.1768 40.4605 20.52 40.3784C19.9272 40.3068 19.3301 40.4737 18.8603 40.8423C18.3904 41.2108 18.0863 41.751 18.0147 42.3438C17.943 42.9367 18.1099 43.5337 18.4785 44.0035C18.847 44.4734 19.3872 44.7776 19.98 44.8492C20.8161 44.9518 21.6577 45.0021 22.5 44.9999C27.8691 44.9977 33.0589 43.0679 37.125 39.5617V42.7499C37.125 43.3467 37.362 43.919 37.784 44.3409C38.2059 44.7629 38.7782 44.9999 39.375 44.9999C39.9717 44.9999 40.544 44.7629 40.966 44.3409C41.3879 43.919 41.625 43.3467 41.625 42.7499V33.75C41.6096 33.6011 41.5795 33.4519 41.535 33.309ZM42.75 7.87509C43.3467 7.87509 43.919 7.63804 44.341 7.21608C44.7629 6.79413 45 6.22183 45 5.6251C45 5.02837 44.7629 4.45607 44.341 4.03412C43.919 3.61216 43.3467 3.37511 42.75 3.37511H33.75C33.6035 3.39015 33.4588 3.41954 33.318 3.46286L33.3022 3.46511C33.03 3.52192 32.7706 3.62873 32.5372 3.78011L32.4922 3.80936C32.278 3.95896 32.0915 4.14474 31.941 4.35836C31.923 4.38086 31.896 4.39436 31.878 4.41911C31.8622 4.44161 31.8622 4.47086 31.8465 4.4956C31.6888 4.78414 31.5851 5.09905 31.5405 5.42485C31.5337 5.49235 31.5 5.5531 31.5 5.6251V14.6251C31.5 15.2218 31.737 15.7941 32.159 16.216C32.581 16.638 33.1533 16.8751 33.75 16.8751C34.3467 16.8751 34.919 16.638 35.341 16.216C35.7629 15.7941 36 15.2218 36 14.6251V10.6133C38.8991 13.8944 40.4995 18.1217 40.5 22.5C40.5019 23.1619 40.462 23.8232 40.3807 24.48C40.3089 25.0723 40.4753 25.6688 40.8432 26.1384C41.2112 26.608 41.7505 26.9122 42.3427 26.9843C42.4338 26.9951 42.5255 27.0004 42.6172 27C43.1665 26.999 43.6965 26.7972 44.1072 26.4324C44.5179 26.0677 44.7811 25.5653 44.847 25.02C44.9503 24.184 45.0014 23.3424 45 22.5C44.9977 17.131 43.0679 11.9412 39.5617 7.87509H42.75Z" fill="#003543"/>
</svg>
