<svg width="14" height="21" viewBox="0 0 14 21" fill="none" xmlns="http://www.w3.org/2000/svg">
<path d="M11.2351 0.0830024C11.3549 0.16943 11.4445 0.292778 11.4909 0.435019C11.5372 0.57726 11.5379 0.730937 11.4928 0.87359L9.17404 8.60378H13.468C13.5743 8.62896 13.6732 8.67968 13.7565 8.75173C13.8398 8.82378 13.9052 8.9151 13.9471 9.01812C13.9891 9.12115 14.0065 9.23291 13.9978 9.34416C13.9892 9.45542 13.9547 9.56297 13.8974 9.6579L3.59192 20.9018C3.48056 20.9693 3.35283 21.0033 3.22344 20.9998C3.09405 20.9962 2.96826 20.9554 2.86057 20.882C2.75287 20.8085 2.66764 20.7055 2.61471 20.5846C2.56178 20.4638 2.54329 20.3302 2.56137 20.1991L4.8801 12.5567H0.586159C0.465821 12.5385 0.352385 12.4878 0.257445 12.41C0.162505 12.3322 0.0894657 12.23 0.0457939 12.1139C0.00212205 11.9977 -0.0106164 11.8718 0.00888075 11.749C0.0283779 11.6261 0.0794114 11.5108 0.156765 11.4148L10.4622 0.170845C10.5673 0.0780451 10.6974 0.0199796 10.8354 0.00429876C10.9733 -0.0113821 11.1127 0.0160575 11.2351 0.0830024Z" fill="#46EB14"/>
</svg>
