<svg width="19" height="19" viewBox="0 0 19 19" fill="none" xmlns="http://www.w3.org/2000/svg">
<path d="M9.5 17.6429C10.5693 17.6429 11.6282 17.4322 12.6161 17.023C13.6041 16.6138 14.5017 16.014 15.2579 15.2579C16.014 14.5017 16.6138 13.6041 17.023 12.6161C17.4322 11.6282 17.6429 10.5693 17.6429 9.5C17.6429 8.43066 17.4322 7.3718 17.023 6.38386C16.6138 5.39593 16.014 4.49826 15.2579 3.74213C14.5017 2.986 13.6041 2.3862 12.6161 1.97698C11.6282 1.56776 10.5693 1.35714 9.5 1.35714C7.34038 1.35714 5.26921 2.21505 3.74213 3.74213C2.21505 5.26921 1.35714 7.34038 1.35714 9.5C1.35714 11.6596 2.21505 13.7308 3.74213 15.2579C5.26921 16.785 7.34038 17.6429 9.5 17.6429ZM9.5 19C6.98044 19 4.56408 17.9991 2.78249 16.2175C1.00089 14.4359 0 12.0196 0 9.5C0 6.98044 1.00089 4.56408 2.78249 2.78249C4.56408 1.00089 6.98044 0 9.5 0C12.0196 0 14.4359 1.00089 16.2175 2.78249C17.9991 4.56408 19 6.98044 19 9.5C19 12.0196 17.9991 14.4359 16.2175 16.2175C14.4359 17.9991 12.0196 19 9.5 19Z" fill="white"/>
<path d="M2.71436 9.50007C2.71436 7.70039 3.42928 5.97441 4.70185 4.70185C5.97441 3.42928 7.70039 2.71436 9.50007 2.71436C11.2998 2.71436 13.0257 3.42928 14.2983 4.70185C15.5709 5.97441 16.2858 7.70039 16.2858 9.50007C16.2858 9.68004 16.2143 9.85264 16.087 9.97989C15.9598 10.1071 15.7872 10.1786 15.6072 10.1786C15.4272 10.1786 15.2546 10.1071 15.1274 9.97989C15.0001 9.85264 14.9286 9.68004 14.9286 9.50007C14.9286 8.06032 14.3567 6.67954 13.3386 5.66149C12.3206 4.64344 10.9398 4.0715 9.50007 4.0715C8.06032 4.0715 6.67954 4.64344 5.66149 5.66149C4.64344 6.67954 4.0715 8.06032 4.0715 9.50007C4.0715 9.68004 4.00001 9.85264 3.87275 9.97989C3.74549 10.1071 3.5729 10.1786 3.39293 10.1786C3.21296 10.1786 3.04036 10.1071 2.9131 9.97989C2.78585 9.85264 2.71436 9.68004 2.71436 9.50007Z" fill="white"/>
<path d="M10.7387 11.9564C11.1196 12.2489 11.3847 12.6666 11.4873 13.1357C11.5899 13.6048 11.5234 14.0951 11.2995 14.5199C11.0756 14.9447 10.7087 15.2767 10.2637 15.4572C9.81872 15.6377 9.32425 15.655 8.8677 15.5062C8.41114 15.3574 8.02189 15.052 7.76874 14.6439C7.51559 14.2358 7.41485 13.7514 7.4843 13.2763C7.55376 12.8011 7.78895 12.3658 8.1483 12.0473C8.50766 11.7288 8.96805 11.5476 9.4481 11.5356L10.7415 7.55378C10.7683 7.46815 10.8118 7.38868 10.8695 7.31997C10.9272 7.25127 10.998 7.19469 11.0777 7.15352C11.1574 7.11235 11.2445 7.0874 11.334 7.08012C11.4234 7.07284 11.5134 7.08336 11.5987 7.11109C11.6841 7.13882 11.7631 7.1832 11.8312 7.24166C11.8992 7.30012 11.955 7.3715 11.9953 7.45168C12.0356 7.53185 12.0596 7.61922 12.0659 7.70873C12.0723 7.79824 12.0608 7.88811 12.0321 7.97314L10.7387 11.955V11.9564ZM9.28931 14.2174C9.37415 14.245 9.46359 14.2556 9.55254 14.2487C9.64149 14.2417 9.7282 14.2173 9.80772 14.1769C9.88724 14.1364 9.95801 14.0807 10.016 14.0129C10.074 13.9451 10.118 13.8665 10.1457 13.7817C10.1733 13.6969 10.1839 13.6074 10.177 13.5185C10.1701 13.4295 10.1457 13.3428 10.1052 13.2633C10.0648 13.1838 10.009 13.113 9.94123 13.055C9.87342 12.997 9.79486 12.953 9.71003 12.9254C9.5387 12.8696 9.35222 12.8841 9.19163 12.9658C9.03103 13.0475 8.90946 13.1897 8.85367 13.361C8.79788 13.5323 8.81244 13.7188 8.89414 13.8794C8.97583 14.04 9.11798 14.1616 9.28931 14.2174Z" fill="white"/>
</svg>
