<svg width="39" height="39" viewBox="0 0 39 39" fill="none" xmlns="http://www.w3.org/2000/svg">
<path d="M19.5 39C30.2736 39 39 30.2675 39 19.5C39 8.73251 30.2736 0 19.5 0C8.72644 0 0 8.73251 0 19.5C0 30.2675 8.73391 39 19.5 39Z" fill="#FF060A"/>
<path d="M30.1389 14.8845C29.0631 13.8865 27.5688 12.3661 26.3585 11.2902L26.2838 11.2434C26.1642 11.1498 26.0297 11.0719 25.8878 11.0173C22.959 10.4715 9.33145 7.92192 9.06996 7.9531C8.99524 7.9609 8.92053 7.99209 8.86076 8.03107L8.79352 8.08565C8.71134 8.17142 8.64409 8.27277 8.60674 8.38973L8.5918 8.43651V8.69381V8.73279C10.1234 13.0055 16.1826 26.9931 17.378 30.2834C17.4527 30.5095 17.5872 30.9305 17.8412 30.9539H17.901C18.0355 30.9539 18.6182 30.182 18.6182 30.182C18.6182 30.182 29.0257 17.5667 30.0792 16.2256C30.2136 16.0619 30.3332 15.8825 30.4378 15.6954C30.4677 15.5473 30.4527 15.3991 30.4004 15.2588C30.3481 15.1184 30.251 14.9859 30.1389 14.8845ZM21.278 16.3581L25.7159 12.678L28.3234 15.0795L21.278 16.3581ZM19.5521 16.1164L11.909 9.84775L24.2815 12.1322L19.5521 16.1164ZM20.2395 17.7538L28.0619 16.4907L19.1188 27.2738L20.2395 17.7538ZM10.8705 10.4793L18.9171 17.3016L17.7516 27.2816L10.8705 10.4793Z" fill="white"/>
</svg>
