<svg width="890" height="128" viewBox="0 0 890 128" fill="none" xmlns="http://www.w3.org/2000/svg">
<path d="M808.401 2.36365L830.979 41.4226H831.945L854.765 2.36365H888.209L850.901 64.1818L889.417 126H855.127L831.945 86.5185H830.979L807.797 126H773.749L812.084 64.1818L774.715 2.36365H808.401Z" fill="#A9B6BC" fill-opacity="0.3"/>
<path d="M673.747 126H641.631L683.346 2.36365H723.129L764.845 126H732.728L703.691 33.5142H702.725L673.747 126ZM669.461 77.3423H736.592V100.041H669.461V77.3423Z" fill="#A9B6BC" fill-opacity="0.3"/>
<path d="M490.119 2.36365H527.126L558.518 78.9119H559.966L591.359 2.36365H628.365V126H599.267V50.0554H598.241L568.539 125.215H549.945L520.243 49.6328H519.217V126H490.119V2.36365Z" fill="#A9B6BC" fill-opacity="0.3"/>
<path d="M471.329 2.36365V126H445.974L396.773 54.6435H395.988V126H366.105V2.36365H391.823L440.48 73.5994H441.507V2.36365H471.329Z" fill="#A9B6BC" fill-opacity="0.3"/>
<path d="M348.659 64.1818C348.659 77.785 346.043 89.3156 340.811 98.7734C335.579 108.231 328.495 115.415 319.561 120.325C310.666 125.235 300.685 127.69 289.618 127.69C278.51 127.69 268.508 125.215 259.614 120.265C250.72 115.315 243.656 108.131 238.424 98.7131C233.233 89.2552 230.637 77.7448 230.637 64.1818C230.637 50.5786 233.233 39.048 238.424 29.5902C243.656 20.1323 250.72 12.9484 259.614 8.03834C268.508 3.1283 278.51 0.673279 289.618 0.673279C300.685 0.673279 310.666 3.1283 319.561 8.03834C328.495 12.9484 335.579 20.1323 340.811 29.5902C346.043 39.048 348.659 50.5786 348.659 64.1818ZM318.112 64.1818C318.112 56.1326 316.965 49.331 314.671 43.777C312.417 38.223 309.157 34.0173 304.891 31.1598C300.665 28.3023 295.574 26.8736 289.618 26.8736C283.701 26.8736 278.61 28.3023 274.344 31.1598C270.078 34.0173 266.798 38.223 264.504 43.777C262.25 49.331 261.123 56.1326 261.123 64.1818C261.123 72.231 262.25 79.0327 264.504 84.5866C266.798 90.1406 270.078 94.3463 274.344 97.2038C278.61 100.061 283.701 101.49 289.618 101.49C295.574 101.49 300.665 100.061 304.891 97.2038C309.157 94.3463 312.417 90.1406 314.671 84.5866C316.965 79.0327 318.112 72.231 318.112 64.1818Z" fill="#A9B6BC" fill-opacity="0.3"/>
<path d="M119.406 126V2.36365H170.479C179.735 2.36365 187.724 4.03387 194.445 7.3743C201.207 10.6745 206.419 15.4235 210.081 21.6215C213.743 27.7791 215.575 35.0838 215.575 43.5355C215.575 52.108 213.703 59.3925 209.96 65.3892C206.217 71.3457 200.905 75.8935 194.023 79.0327C187.141 82.1316 178.991 83.6811 169.573 83.6811H137.276V60.1371H164.019C168.527 60.1371 172.29 59.5535 175.308 58.3864C178.367 57.179 180.681 55.3679 182.251 52.9531C183.82 50.4981 184.605 47.3589 184.605 43.5355C184.605 39.7121 183.82 36.5528 182.251 34.0575C180.681 31.522 178.367 29.6305 175.308 28.3828C172.25 27.095 168.487 26.451 164.019 26.451H149.289V126H119.406ZM189.012 69.4943L219.8 126H187.201L157.016 69.4943H189.012Z" fill="#A9B6BC" fill-opacity="0.3"/>
<path d="M0.3125 26.6321V2.36365H104.812V26.6321H67.3224V126H37.8622V26.6321H0.3125Z" fill="#A9B6BC" fill-opacity="0.3"/>
</svg>
