<svg width="39" height="39" viewBox="0 0 39 39" fill="none" xmlns="http://www.w3.org/2000/svg">
<path d="M19.5 39C30.2736 39 39 30.2675 39 19.5C39 8.73251 30.2736 0 19.5 0C8.72644 0 0 8.73251 0 19.5C0 30.2675 8.73391 39 19.5 39Z" fill="#0067FF"/>
<path d="M30.139 14.8845C29.0632 13.8865 27.5689 12.3661 26.3586 11.2902L26.2839 11.2434C26.1643 11.1498 26.0298 11.0719 25.8879 11.0173C22.9592 10.4715 9.33157 7.92192 9.07008 7.9531C8.99537 7.9609 8.92065 7.99209 8.86088 8.03107L8.79364 8.08565C8.71146 8.17142 8.64422 8.27277 8.60686 8.38973L8.59192 8.43651V8.69381V8.73279C10.1235 13.0055 16.1827 26.9931 17.3781 30.2834C17.4528 30.5095 17.5873 30.9305 17.8413 30.9539H17.9011C18.0356 30.9539 18.6184 30.182 18.6184 30.182C18.6184 30.182 29.0258 17.5667 30.0793 16.2256C30.2138 16.0619 30.3333 15.8825 30.4379 15.6954C30.4678 15.5473 30.4528 15.3991 30.4005 15.2588C30.3482 15.1184 30.2511 14.9859 30.139 14.8845ZM21.2781 16.3581L25.7161 12.678L28.3235 15.0795L21.2781 16.3581ZM19.5523 16.1164L11.9092 9.84775L24.2816 12.1322L19.5523 16.1164ZM20.2396 17.7538L28.062 16.4907L19.1189 27.2738L20.2396 17.7538ZM10.8707 10.4793L18.9172 17.3016L17.7517 27.2816L10.8707 10.4793Z" fill="white"/>
</svg>
