<svg width="38" height="38" viewBox="0 0 38 38" fill="none" xmlns="http://www.w3.org/2000/svg">
<path fill-rule="evenodd" clip-rule="evenodd" d="M19 0C29.4945 0 38 8.50547 38 19C38 29.4945 29.4945 38 19 38C8.50547 38 0 29.4945 0 19C0 8.50547 8.50547 0 19 0Z" fill="url(#paint0_radial_414_32)"/>
<path d="M12.0752 14.673C15.8975 10.9398 22.1021 10.9398 25.9244 14.673L26.3846 15.1258C26.5775 15.3113 26.5775 15.6156 26.3846 15.8012L24.8111 17.3375C24.7146 17.434 24.5588 17.434 24.4623 17.3375L23.8314 16.7215C21.1596 14.1164 16.84 14.1164 14.1682 16.7215L13.4928 17.382C13.3963 17.4785 13.2404 17.4785 13.1439 17.382L11.5705 15.8457C11.3775 15.6602 11.3775 15.3559 11.5705 15.1703L12.0752 14.673ZM29.1826 17.8496L30.5854 19.2152C30.7783 19.4008 30.7783 19.7051 30.5854 19.8906L24.2693 26.0582C24.0764 26.2438 23.7647 26.2438 23.5791 26.0582L19.0963 21.6793C19.0518 21.6348 18.9701 21.6348 18.9256 21.6793L14.4428 26.0582C14.2498 26.2438 13.9381 26.2438 13.7525 26.0582L7.41426 19.8906C7.22129 19.7051 7.22129 19.4008 7.41426 19.2152L8.81699 17.8496C9.00996 17.6641 9.32168 17.6641 9.50723 17.8496L13.99 22.2285C14.0346 22.273 14.1162 22.273 14.1607 22.2285L18.6436 17.8496C18.8365 17.6641 19.1482 17.6641 19.3338 17.8496L23.8166 22.2285C23.8611 22.273 23.9428 22.273 23.9873 22.2285L28.4701 17.8496C28.6779 17.6641 28.9897 17.6641 29.1826 17.8496Z" fill="white"/>
<defs>
<radialGradient id="paint0_radial_414_32" cx="0" cy="0" r="1" gradientUnits="userSpaceOnUse" gradientTransform="translate(0.000117779 19.0006) scale(38)">
<stop stop-color="#5D9DF6"/>
<stop offset="1" stop-color="#006FFF"/>
</radialGradient>
</defs>
</svg>
